<?xml version="1.0" standalone="no"?>
<!DOCTYPE svg PUBLIC "-//W3C//DTD SVG 20010904//EN"
 "http://www.w3.org/TR/2001/REC-SVG-20010904/DTD/svg10.dtd">
<svg version="1.0" xmlns="http://www.w3.org/2000/svg"
 width="450.000000pt" height="450.000000pt" viewBox="0 0 450.000000 450.000000"
 preserveAspectRatio="xMidYMid meet">
<metadata>
Created by potrace 1.11, written by Peter Selinger 2001-2013
</metadata>
<g transform="translate(0.000000,450.000000) scale(0.100000,-0.100000)"
fill="#000000" stroke="none">
<path d="M0 2250 l0 -2250 2250 0 2250 0 0 2250 0 2250 -2250 0 -2250 0 0
-2250z m2565 1101 c313 -66 469 -199 519 -444 43 -205 2 -380 -119 -514 l-55
-62 43 -30 c108 -74 199 -207 233 -341 22 -84 22 -252 0 -343 -61 -255 -268
-418 -601 -472 -72 -12 -212 -15 -694 -15 l-604 0 6 368 c4 202 7 440 7 530
l0 162 210 0 210 0 0 55 0 56 83 -3 82 -3 3 -46 3 -46 157 -6 c86 -4 205 -7
264 -7 59 0 131 -5 160 -11 124 -26 220 -97 266 -197 22 -48 27 -71 27 -147 0
-76 -4 -98 -26 -145 -47 -101 -152 -176 -278 -200 -30 -5 -205 -10 -397 -10
l-344 0 0 235 0 235 85 0 85 0 0 -156 0 -156 273 4 c287 5 313 9 375 55 45 34
62 72 62 141 0 100 -58 161 -173 181 -40 7 -231 11 -515 11 l-452 0 0 -370 0
-370 470 0 c259 0 514 5 568 10 193 21 327 74 418 164 60 60 86 107 108 193
70 270 -82 542 -348 623 l-75 23 54 22 c114 47 203 135 247 245 19 47 22 75
22 185 1 161 -19 221 -98 300 -134 134 -278 158 -946 153 l-415 -3 0 -330 0
-330 128 -3 127 -3 0 241 0 240 318 0 c398 0 466 -12 566 -101 120 -104 122
-328 5 -433 -21 -20 -57 -45 -80 -56 -89 -46 -140 -50 -701 -50 l-528 0 0 498
0 497 602 -6 c431 -3 620 -9 663 -18z"/>
<path d="M1887 2853 c-2 -4 -2 -77 1 -160 l4 -153 162 0 c88 1 207 5 263 9
155 13 213 56 213 156 0 41 -5 52 -38 85 -22 23 -54 42 -77 48 -50 13 -522 26
-528 15z"/>
</g>
</svg>
